<?xml version="1.0" encoding="utf-8"?>
<!-- Generator: Adobe Illustrator 16.0.0, SVG Export Plug-In . SVG Version: 6.00 Build 0)  -->
<!DOCTYPE svg PUBLIC "-//W3C//DTD SVG 1.1//EN" "http://www.w3.org/Graphics/SVG/1.1/DTD/svg11.dtd">
<svg version="1.1" id="Layer_1" xmlns="http://www.w3.org/2000/svg" xmlns:xlink="http://www.w3.org/1999/xlink" x="0px" y="0px"
	 width="100px" height="100px" viewBox="0 0 100 100" enable-background="new 0 0 100 100" xml:space="preserve">
<g>
	<path fill="#FFFFFF" d="M59.722,95.762H13.924c-4.811,0-8.725-3.927-8.725-8.754V26.582c0-4.827,3.914-8.754,8.725-8.754h42.609
		c1.656,0,3,1.343,3,3s-1.344,3-3,3H13.924c-1.502,0-2.725,1.235-2.725,2.754v60.426c0,1.519,1.222,2.754,2.725,2.754h45.798
		c1.503,0,2.725-1.235,2.725-2.754V42.852c0-1.657,1.343-3,3-3s3,1.343,3,3v44.156C68.446,91.835,64.532,95.762,59.722,95.762z"/>
	<path fill="#FFFFFF" d="M54.164,37.106H19.481c-1.657,0-3-1.343-3-3s1.343-3,3-3h34.683c1.657,0,3,1.343,3,3
		S55.821,37.106,54.164,37.106z"/>
	<path fill="#FFFFFF" d="M54.164,48.279H19.481c-1.657,0-3-1.343-3-3s1.343-3,3-3h34.683c1.657,0,3,1.343,3,3
		S55.821,48.279,54.164,48.279z"/>
	<path fill="#FFFFFF" d="M54.164,59.45H19.481c-1.657,0-3-1.343-3-3s1.343-3,3-3h34.683c1.657,0,3,1.343,3,3
		S55.821,59.45,54.164,59.45z"/>
	<path fill="#FFFFFF" d="M54.164,70.623H19.481c-1.657,0-3-1.343-3-3s1.343-3,3-3h34.683c1.657,0,3,1.343,3,3
		S55.821,70.623,54.164,70.623z"/>
	<path fill="#FFFFFF" d="M54.164,81.793H19.481c-1.657,0-3-1.343-3-3s1.343-3,3-3h34.683c1.657,0,3,1.343,3,3
		S55.821,81.793,54.164,81.793z"/>
	<path fill="#FFFFFF" d="M87.513,45.251H64.613c-4.811,0-8.725-3.928-8.725-8.755v-23.02c0-4.827,3.914-8.754,8.725-8.754h22.899
		c4.811,0,8.724,3.927,8.724,8.754v23.02C96.236,41.323,92.323,45.251,87.513,45.251z M64.613,10.723
		c-1.502,0-2.725,1.235-2.725,2.754v23.02c0,1.52,1.223,2.755,2.725,2.755h22.899c1.502,0,2.724-1.235,2.724-2.755v-23.02
		c0-1.519-1.222-2.754-2.724-2.754H64.613z"/>
	<g>
		<path fill="#FFFFFF" d="M65.063,32.336v-1.961l1.782-1.62c3.012-2.707,4.476-4.264,4.518-5.884c0-1.13-0.679-2.024-2.27-2.024
			c-1.188,0-2.227,0.597-2.948,1.15l-0.912-2.323c1.039-0.789,2.652-1.428,4.518-1.428c3.118,0,4.836,1.833,4.836,4.349
			c0,2.323-1.676,4.178-3.669,5.968l-1.272,1.066v0.042h5.196v2.665H65.063z"/>
		<path fill="#FFFFFF" d="M85.634,20.782c-0.36-0.021-0.742,0-1.251,0.043c-2.863,0.234-4.137,1.705-4.497,3.325h0.063
			c0.68-0.703,1.633-1.108,2.928-1.108c2.312,0,4.263,1.642,4.263,4.519c0,2.75-2.1,5.01-5.091,5.01
			c-3.669,0-5.472-2.75-5.472-6.054c0-2.601,0.954-4.775,2.438-6.16c1.379-1.258,3.161-1.94,5.324-2.047
			c0.594-0.043,0.976-0.043,1.294-0.021V20.782z M83.873,27.731c0-1.279-0.678-2.388-2.057-2.388c-0.87,0-1.592,0.533-1.909,1.236
			c-0.085,0.171-0.128,0.427-0.128,0.811c0.064,1.471,0.764,2.792,2.228,2.792C83.152,30.183,83.873,29.139,83.873,27.731z"/>
	</g>
</g>
</svg>
