<?xml version="1.0" encoding="utf-8"?>
<!-- Generator: Adobe Illustrator 16.0.0, SVG Export Plug-In . SVG Version: 6.00 Build 0)  -->
<!DOCTYPE svg PUBLIC "-//W3C//DTD SVG 1.1//EN" "http://www.w3.org/Graphics/SVG/1.1/DTD/svg11.dtd">
<svg version="1.1" id="Layer_1" xmlns="http://www.w3.org/2000/svg" xmlns:xlink="http://www.w3.org/1999/xlink" x="0px" y="0px"
	 width="100px" height="100px" viewBox="0 0 100 100" enable-background="new 0 0 100 100" xml:space="preserve">
<g>
	<path fill="none" stroke="#FFFFFF" stroke-width="4" stroke-linecap="round" stroke-linejoin="round" stroke-miterlimit="10" d="
		M65.974,42.852v44.156c0,3.178-2.563,5.754-5.725,5.754H14.451c-3.162,0-5.725-2.576-5.725-5.754V26.582
		c0-3.178,2.563-5.754,5.725-5.754h42.609"/>
	
		<line fill="none" stroke="#FFFFFF" stroke-width="4" stroke-linecap="round" stroke-linejoin="round" stroke-miterlimit="10" x1="54.691" y1="34.106" x2="20.008" y2="34.106"/>
	
		<line fill="none" stroke="#FFFFFF" stroke-width="4" stroke-linecap="round" stroke-linejoin="round" stroke-miterlimit="10" x1="54.691" y1="45.279" x2="20.008" y2="45.279"/>
	
		<line fill="none" stroke="#FFFFFF" stroke-width="4" stroke-linecap="round" stroke-linejoin="round" stroke-miterlimit="10" x1="54.691" y1="56.45" x2="20.008" y2="56.45"/>
	
		<line fill="none" stroke="#FFFFFF" stroke-width="4" stroke-linecap="round" stroke-linejoin="round" stroke-miterlimit="10" x1="54.691" y1="67.623" x2="20.008" y2="67.623"/>
	
		<line fill="none" stroke="#FFFFFF" stroke-width="4" stroke-linecap="round" stroke-linejoin="round" stroke-miterlimit="10" x1="54.691" y1="78.793" x2="20.008" y2="78.793"/>
	
		<path fill="#F7941E" stroke="#FFFFFF" stroke-width="4" stroke-linecap="round" stroke-linejoin="round" stroke-miterlimit="10" d="
		M93.764,36.496c0,3.178-2.563,5.755-5.724,5.755H65.141c-3.162,0-5.725-2.577-5.725-5.755v-23.02c0-3.178,2.563-5.754,5.725-5.754
		H88.04c3.161,0,5.724,2.576,5.724,5.754V36.496z"/>
	<g>
		<path fill="#FFFFFF" d="M65.59,32.336v-1.961l1.782-1.62c3.012-2.707,4.476-4.264,4.518-5.884c0-1.13-0.679-2.024-2.27-2.024
			c-1.188,0-2.227,0.597-2.948,1.15l-0.912-2.323c1.039-0.789,2.652-1.428,4.518-1.428c3.118,0,4.836,1.833,4.836,4.349
			c0,2.323-1.676,4.178-3.669,5.968l-1.272,1.066v0.042h5.196v2.665H65.59z"/>
		<path fill="#FFFFFF" d="M86.161,20.782c-0.36-0.021-0.742,0-1.251,0.043c-2.863,0.234-4.137,1.705-4.497,3.325h0.063
			c0.68-0.703,1.633-1.108,2.928-1.108c2.312,0,4.263,1.642,4.263,4.519c0,2.75-2.1,5.01-5.091,5.01
			c-3.669,0-5.472-2.75-5.472-6.054c0-2.601,0.954-4.775,2.438-6.16c1.379-1.258,3.161-1.94,5.324-2.047
			c0.594-0.043,0.976-0.043,1.294-0.021V20.782z M84.4,27.731c0-1.279-0.678-2.388-2.057-2.388c-0.87,0-1.592,0.533-1.909,1.236
			c-0.085,0.171-0.128,0.427-0.128,0.811c0.064,1.471,0.764,2.792,2.228,2.792C83.68,30.183,84.4,29.139,84.4,27.731z"/>
	</g>
</g>
</svg>
