<?xml version="1.0" encoding="utf-8"?>
<!-- Generator: Adobe Illustrator 16.0.0, SVG Export Plug-In . SVG Version: 6.00 Build 0)  -->
<!DOCTYPE svg PUBLIC "-//W3C//DTD SVG 1.1//EN" "http://www.w3.org/Graphics/SVG/1.1/DTD/svg11.dtd">
<svg version="1.1" id="Layer_1" xmlns="http://www.w3.org/2000/svg" xmlns:xlink="http://www.w3.org/1999/xlink" x="0px" y="0px"
	 width="99.21px" height="99.21px" viewBox="0 0 99.21 99.21" enable-background="new 0 0 99.21 99.21" xml:space="preserve">
<g>
	<g>
		<path fill="#231F20" d="M35.574,51.693c-0.702,0.312-2.028,0.571-3.536,0.571c-4.108,0-6.734-2.496-6.734-6.5
			c0-3.718,2.548-6.76,7.28-6.76c1.04,0,2.184,0.182,3.016,0.494l-0.624,2.938c-0.468-0.208-1.17-0.39-2.21-0.39
			c-2.08,0-3.432,1.482-3.406,3.562c0,2.34,1.56,3.563,3.484,3.563c0.936,0,1.664-0.156,2.262-0.39L35.574,51.693z"/>
		<path fill="#231F20" d="M45.09,52.005l-0.234-1.274h-0.078c-0.832,1.014-2.132,1.56-3.64,1.56c-2.574,0-4.108-1.872-4.108-3.9
			c0-3.302,2.964-4.888,7.462-4.862v-0.182c0-0.676-0.364-1.638-2.314-1.638c-1.3,0-2.678,0.442-3.51,0.962l-0.728-2.548
			c0.884-0.494,2.626-1.118,4.94-1.118c4.238,0,5.59,2.496,5.59,5.486v4.42c0,1.222,0.052,2.392,0.182,3.094H45.09z M44.622,45.999
			c-2.08-0.026-3.692,0.468-3.692,2.002c0,1.014,0.676,1.508,1.56,1.508c0.988,0,1.794-0.65,2.054-1.456
			c0.052-0.208,0.078-0.442,0.078-0.676V45.999z"/>
		<path fill="#231F20" d="M51.563,48.547c0.728,0.442,2.235,0.962,3.406,0.962c1.196,0,1.69-0.416,1.69-1.066
			s-0.391-0.962-1.873-1.456c-2.625-0.884-3.64-2.314-3.613-3.822c0-2.366,2.027-4.16,5.174-4.16c1.482,0,2.809,0.338,3.588,0.728
			l-0.701,2.73c-0.572-0.312-1.664-0.728-2.757-0.728c-0.962,0-1.508,0.39-1.508,1.04c0,0.598,0.493,0.91,2.054,1.456
			c2.418,0.832,3.432,2.054,3.459,3.926c0,2.366-1.873,4.108-5.513,4.108c-1.664,0-3.146-0.364-4.108-0.884L51.563,48.547z"/>
		<path fill="#231F20" d="M62.873,33.544h3.952v7.254h0.052c0.416-0.546,0.937-0.962,1.561-1.3c0.572-0.312,1.326-0.494,2.055-0.494
			c2.521,0,4.445,1.742,4.445,5.564v7.437h-3.952v-6.994c0-1.664-0.571-2.808-2.054-2.808c-1.041,0-1.69,0.676-1.977,1.378
			c-0.104,0.26-0.13,0.598-0.13,0.884v7.54h-3.952V33.544z"/>
	</g>
	<g>
		<path fill="#231F20" d="M25.161,55.705c1.04-0.208,3.146-0.364,5.123-0.364c2.418,0,3.9,0.233,5.174,0.988
			c1.222,0.649,2.106,1.847,2.106,3.433c0,1.56-0.91,3.016-2.886,3.744v0.051c2.002,0.547,3.484,2.055,3.484,4.316
			c0,1.586-0.729,2.834-1.82,3.719c-1.274,1.014-3.406,1.586-6.89,1.586c-1.95,0-3.406-0.131-4.291-0.26V55.705z M29.087,62.413h1.3
			c2.08,0,3.198-0.858,3.198-2.157c0-1.326-1.014-2.029-2.809-2.029c-0.858,0-1.352,0.053-1.69,0.104V62.413z M29.087,70.188
			c0.39,0.053,0.858,0.053,1.534,0.053c1.794,0,3.38-0.677,3.38-2.523c0-1.768-1.586-2.469-3.563-2.469h-1.352V70.188z"/>
		<path fill="#231F20" d="M47.001,72.996l-0.234-1.274h-0.078c-0.832,1.015-2.132,1.56-3.64,1.56c-2.574,0-4.108-1.871-4.108-3.9
			c0-3.301,2.964-4.888,7.462-4.861v-0.182c0-0.677-0.364-1.639-2.314-1.639c-1.3,0-2.678,0.441-3.51,0.962l-0.728-2.548
			c0.884-0.494,2.626-1.118,4.94-1.118c4.238,0,5.59,2.496,5.59,5.486v4.42c0,1.222,0.052,2.392,0.182,3.095H47.001z M46.533,66.989
			c-2.08-0.026-3.692,0.468-3.692,2.003c0,1.014,0.676,1.508,1.56,1.508c0.988,0,1.794-0.65,2.054-1.457
			c0.052-0.207,0.078-0.441,0.078-0.676V66.989z"/>
		<path fill="#231F20" d="M56.413,65.637h0.052c0.286-0.52,0.599-1.039,0.91-1.533l2.574-3.822h4.758l-4.55,5.148l5.2,7.566h-4.862
			l-3.067-5.227l-1.015,1.248v3.979h-3.952V54.535h3.952V65.637z"/>
		<path fill="#231F20" d="M68.191,67.899c0.13,1.638,1.742,2.418,3.588,2.418c1.352,0,2.444-0.183,3.51-0.521l0.521,2.679
			c-1.3,0.521-2.886,0.78-4.603,0.78c-4.316,0-6.786-2.496-6.786-6.475c0-3.225,2.002-6.786,6.423-6.786
			c4.107,0,5.668,3.198,5.668,6.345c0,0.676-0.078,1.273-0.131,1.56H68.191z M72.846,65.195c0-0.962-0.416-2.574-2.236-2.574
			c-1.664,0-2.34,1.508-2.444,2.574H72.846z"/>
	</g>
	<path fill="none" stroke="#231F20" stroke-width="6" stroke-miterlimit="10" d="M82.468,76.992c0,3.208-2.6,5.808-5.806,5.808
		h-52.66c-3.207,0-5.807-2.6-5.807-5.808V33.553c0-3.208,2.6-5.807,5.807-5.807h52.66c3.206,0,5.806,2.6,5.806,5.807V76.992z"/>
	<path fill="none" stroke="#231F20" stroke-width="6" stroke-miterlimit="10" d="M92.852,82.618c0,4.954-3.439,8.97-7.682,8.97
		H15.494c-4.243,0-7.682-4.016-7.682-8.97v-67.1c0-4.955,3.439-8.97,7.682-8.97H85.17c4.242,0,7.682,4.015,7.682,8.97V82.618z"/>
	<circle fill="#231F20" cx="29.446" cy="17.996" r="4.021"/>
	<circle fill="#231F20" cx="43.572" cy="17.996" r="4.021"/>
	<circle fill="#231F20" cx="57.259" cy="17.996" r="4.021"/>
	<circle fill="#231F20" cx="70.634" cy="17.996" r="4.021"/>
</g>
</svg>
