<?xml version="1.0" encoding="utf-8"?>
<!-- Generator: Adobe Illustrator 16.0.0, SVG Export Plug-In . SVG Version: 6.00 Build 0)  -->
<!DOCTYPE svg PUBLIC "-//W3C//DTD SVG 1.1//EN" "http://www.w3.org/Graphics/SVG/1.1/DTD/svg11.dtd">
<svg version="1.1" id="Layer_1" xmlns="http://www.w3.org/2000/svg" xmlns:xlink="http://www.w3.org/1999/xlink" x="0px" y="0px"
	 width="99.21px" height="99.21px" viewBox="0 0 99.21 99.21" enable-background="new 0 0 99.21 99.21" xml:space="preserve">
<g>
	<g>
		<path fill="#231F20" d="M31.533,43.347c0-1.586-0.052-2.938-0.104-4.056h3.328l0.182,1.716h0.078
			c0.546-0.806,1.664-2.002,3.848-2.002c1.638,0,2.938,0.832,3.484,2.158h0.052c0.468-0.65,1.04-1.17,1.638-1.534
			c0.702-0.416,1.482-0.624,2.418-0.624c2.444,0,4.29,1.716,4.29,5.512v7.488H46.9v-6.916c0-1.846-0.598-2.912-1.872-2.912
			c-0.91,0-1.56,0.624-1.82,1.378c-0.104,0.286-0.156,0.702-0.156,1.014v7.437h-3.848v-7.124c0-1.612-0.572-2.704-1.82-2.704
			c-1.014,0-1.612,0.78-1.846,1.43c-0.13,0.312-0.156,0.676-0.156,0.988v7.41h-3.848V43.347z"/>
		<path fill="#231F20" d="M59.535,46.909c0.13,1.638,1.742,2.418,3.588,2.418c1.352,0,2.444-0.182,3.51-0.52l0.521,2.678
			c-1.3,0.521-2.886,0.78-4.603,0.78c-4.316,0-6.786-2.496-6.786-6.474c0-3.224,2.002-6.786,6.423-6.786
			c4.107,0,5.668,3.198,5.668,6.344c0,0.676-0.078,1.274-0.131,1.56H59.535z M64.189,44.205c0-0.962-0.416-2.574-2.236-2.574
			c-1.664,0-2.34,1.508-2.444,2.574H64.189z"/>
	</g>
	<g>
		<path fill="#231F20" d="M31.551,63.014c0-1.586-0.052-2.938-0.104-4.057h3.432l0.182,1.742h0.078
			c0.52-0.806,1.82-2.027,3.926-2.027c2.6,0,4.55,1.716,4.55,5.46v7.54h-3.952v-7.047c0-1.638-0.572-2.756-2.002-2.756
			c-1.092,0-1.742,0.754-2.002,1.482c-0.104,0.234-0.156,0.624-0.156,0.988v7.332h-3.952V63.014z"/>
		<path fill="#231F20" d="M67.613,67.59c0,1.664,0.053,3.016,0.105,4.082h-3.434l-0.182-1.794h-0.078
			c-0.494,0.78-1.689,2.08-3.978,2.08c-2.574,0-4.472-1.612-4.472-5.538v-7.463h3.978v6.839c0,1.846,0.599,2.964,1.976,2.964
			c1.092,0,1.717-0.754,1.977-1.378c0.104-0.234,0.13-0.546,0.13-0.858v-7.566h3.978V67.59z"/>
	</g>
	<path fill="none" stroke="#231F20" stroke-width="6" stroke-miterlimit="10" d="M81.968,76.992c0,3.208-2.6,5.808-5.806,5.808
		h-52.66c-3.207,0-5.807-2.6-5.807-5.808V33.553c0-3.208,2.6-5.807,5.807-5.807h52.66c3.206,0,5.806,2.6,5.806,5.807V76.992z"/>
	<path fill="none" stroke="#231F20" stroke-width="6" stroke-miterlimit="10" d="M92.352,82.618c0,4.954-3.439,8.97-7.682,8.97
		H14.994c-4.243,0-7.682-4.016-7.682-8.97v-67.1c0-4.955,3.439-8.97,7.682-8.97H84.67c4.242,0,7.682,4.015,7.682,8.97V82.618z"/>
	<circle fill="#231F20" cx="28.946" cy="17.996" r="4.021"/>
	<circle fill="#231F20" cx="43.072" cy="17.996" r="4.021"/>
	<circle fill="#231F20" cx="56.759" cy="17.996" r="4.021"/>
	<circle fill="#231F20" cx="70.134" cy="17.996" r="4.021"/>
</g>
</svg>
