<?xml version="1.0" encoding="utf-8"?>
<!-- Generator: Adobe Illustrator 16.0.0, SVG Export Plug-In . SVG Version: 6.00 Build 0)  -->
<!DOCTYPE svg PUBLIC "-//W3C//DTD SVG 1.1//EN" "http://www.w3.org/Graphics/SVG/1.1/DTD/svg11.dtd">
<svg version="1.1" id="Layer_1" xmlns="http://www.w3.org/2000/svg" xmlns:xlink="http://www.w3.org/1999/xlink" x="0px" y="0px"
	 width="99.21px" height="99.21px" viewBox="0 0 99.21 99.21" enable-background="new 0 0 99.21 99.21" xml:space="preserve">
<g>
	<path fill="none" stroke="#231F20" stroke-width="6" stroke-miterlimit="10" d="M91.664,49.754c0,23.482-19.037,42.52-42.52,42.52
		c-23.483,0-42.52-19.037-42.52-42.52c0-4.745,13.547-1.659,14.98-5.92c1.952-5.802,18.917-1.459,23-5.838
		c3.475-3.726-2.277-16.873,2.333-19.162c5.688-2.824-4.577-11.599,2.206-11.599C72.627,7.234,91.664,26.271,91.664,49.754z"/>
	<ellipse fill="#231F20" cx="36.428" cy="63.145" rx="8.658" ry="8"/>
	<ellipse fill="none" stroke="#231F20" stroke-width="6" stroke-miterlimit="10" cx="64.906" cy="35.4" rx="7.667" ry="7.083"/>
	<ellipse fill="none" stroke="#231F20" stroke-width="6" stroke-miterlimit="10" cx="63.03" cy="66.441" rx="7.083" ry="6.545"/>
	<ellipse fill="#231F20" cx="34.604" cy="13.168" rx="4.833" ry="4.5"/>
	<ellipse fill="#231F20" cx="16.437" cy="28.4" rx="4.167" ry="7"/>
	
		<ellipse transform="matrix(0.6738 -0.7389 0.7389 0.6738 -12.0054 31.7291)" fill="#231F20" cx="29.937" cy="29.463" rx="4.167" ry="5.422"/>
</g>
</svg>
