<?xml version="1.0" encoding="utf-8"?>
<!-- Generator: Adobe Illustrator 16.0.0, SVG Export Plug-In . SVG Version: 6.00 Build 0)  -->
<!DOCTYPE svg PUBLIC "-//W3C//DTD SVG 1.1//EN" "http://www.w3.org/Graphics/SVG/1.1/DTD/svg11.dtd">
<svg version="1.1" id="Layer_1" xmlns="http://www.w3.org/2000/svg" xmlns:xlink="http://www.w3.org/1999/xlink" x="0px" y="0px"
	 width="100px" height="100px" viewBox="0 0 100 100" enable-background="new 0 0 100 100" xml:space="preserve">
<g>
	<polygon fill="#FFFFFF" points="19.03,21.53 7.421,47.525 16.882,74.035 39.807,91.204 69.75,88.736 84.105,75.24 67.911,62.035 
		51.24,26.796 47.995,6.931 	"/>
	<g>
		
			<ellipse fill="#FFFFFF" stroke="#000000" stroke-width="6" stroke-miterlimit="10" cx="50.888" cy="49.999" rx="20.786" ry="20.985"/>
		<g>
			<path d="M49.063,65.318v-3.584c-2.752-0.113-5.422-0.793-6.982-1.623l1.232-4.414c1.725,0.867,4.148,1.66,6.818,1.66
				c2.341,0,3.942-0.83,3.942-2.34c0-1.434-1.314-2.339-4.354-3.282c-4.395-1.358-7.393-3.245-7.393-6.904
				c0-3.32,2.546-5.924,6.941-6.716v-3.584h4.024v3.32c2.752,0.113,4.6,0.641,5.955,1.245l-1.19,4.264
				c-1.067-0.415-2.957-1.283-5.914-1.283c-2.67,0-3.533,1.057-3.533,2.113c0,1.245,1.438,2.037,4.929,3.245
				c4.888,1.585,6.859,3.66,6.859,7.056c0,3.357-2.588,6.225-7.311,6.979v3.849H49.063z"/>
		</g>
		<ellipse fill="none" stroke="#000000" stroke-width="6" stroke-miterlimit="10" cx="50.888" cy="50" rx="41.572" ry="41.971"/>
		<line fill="none" stroke="#000000" stroke-width="6" stroke-miterlimit="10" x1="35.981" y1="35.374" x2="20.35" y2="21.53"/>
		<line fill="none" stroke="#000000" stroke-width="6" stroke-miterlimit="10" x1="50.888" y1="8.029" x2="50.888" y2="29.014"/>
		<line fill="none" stroke="#000000" stroke-width="6" stroke-miterlimit="10" x1="67.911" y1="62.035" x2="84.963" y2="74.035"/>
		<line fill="none" stroke="#000000" stroke-width="6" stroke-miterlimit="10" x1="33.864" y1="62.035" x2="18.049" y2="74.035"/>
	</g>
</g>
</svg>
