<?xml version="1.0" encoding="utf-8"?>
<!-- Generator: Adobe Illustrator 16.0.0, SVG Export Plug-In . SVG Version: 6.00 Build 0)  -->
<!DOCTYPE svg PUBLIC "-//W3C//DTD SVG 1.1//EN" "http://www.w3.org/Graphics/SVG/1.1/DTD/svg11.dtd">
<svg version="1.1" id="Layer_1" xmlns="http://www.w3.org/2000/svg" xmlns:xlink="http://www.w3.org/1999/xlink" x="0px" y="0px"
	 width="99.21px" height="99.21px" viewBox="0 0 99.21 99.21" enable-background="new 0 0 99.21 99.21" xml:space="preserve">
<g>
	<g>
		<path fill="#231F20" d="M46.789,60.973v-5.541c-3.955-0.175-7.793-1.225-10.036-2.508l1.771-6.823
			c2.479,1.342,5.962,2.566,9.8,2.566c3.365,0,5.667-1.283,5.667-3.616c0-2.216-1.889-3.615-6.258-5.073
			c-6.316-2.1-10.626-5.016-10.626-10.673c0-5.132,3.66-9.156,9.977-10.381v-5.54h5.786v5.132c3.955,0.175,6.611,0.992,8.56,1.925
			l-1.712,6.59c-1.535-0.642-4.25-1.982-8.501-1.982c-3.838,0-5.077,1.633-5.077,3.266c0,1.925,2.066,3.149,7.084,5.016
			c7.025,2.449,9.859,5.657,9.859,10.905c0,5.19-3.72,9.623-10.509,10.789v5.949H46.789z"/>
	</g>
	<ellipse fill="none" stroke="#231F20" stroke-width="6" stroke-miterlimit="10" cx="49.414" cy="37.291" rx="29.884" ry="31.697"/>
	<g>
		
			<polyline fill="#FFFFFF" stroke="#231F20" stroke-width="6" stroke-linecap="round" stroke-linejoin="round" stroke-miterlimit="10" points="
			24.088,48.128 15.347,48.128 15.347,68.841 7.439,68.841 24.088,90.634 		"/>
		
			<polyline fill="#FFFFFF" stroke="#231F20" stroke-width="6" stroke-linecap="round" stroke-linejoin="round" stroke-miterlimit="10" points="
			24.088,48.128 32.829,48.128 32.829,68.841 40.735,68.841 24.088,90.634 		"/>
	</g>
	
		<ellipse fill="#FFFFFF" stroke="#231F20" stroke-width="6" stroke-linecap="round" stroke-linejoin="round" stroke-miterlimit="10" cx="71.909" cy="84.334" rx="8.815" ry="9"/>
	
		<polygon fill="#FFFFFF" stroke="#231F20" stroke-width="6" stroke-linecap="round" stroke-linejoin="round" stroke-miterlimit="10" points="
		92.479,8.667 67.339,5.594 67.339,55.898 82.357,58.334 	"/>
</g>
</svg>
