<?xml version="1.0" encoding="utf-8"?>
<!-- Generator: Adobe Illustrator 16.0.0, SVG Export Plug-In . SVG Version: 6.00 Build 0)  -->
<!DOCTYPE svg PUBLIC "-//W3C//DTD SVG 1.1//EN" "http://www.w3.org/Graphics/SVG/1.1/DTD/svg11.dtd">
<svg version="1.1" id="Layer_1" xmlns="http://www.w3.org/2000/svg" xmlns:xlink="http://www.w3.org/1999/xlink" x="0px" y="0px"
	 width="99.21px" height="99.21px" viewBox="0 0 99.21 99.21" enable-background="new 0 0 99.21 99.21" xml:space="preserve">
<g>
	<g>
		<path fill="#231F20" d="M47.756,65.379v-3.631c-2.815-0.115-5.546-0.803-7.142-1.644l1.26-4.472
			c1.765,0.879,4.243,1.682,6.974,1.682c2.395,0,4.032-0.842,4.032-2.37c0-1.452-1.344-2.37-4.452-3.325
			c-4.495-1.376-7.562-3.288-7.562-6.995c0-3.364,2.604-6.001,7.1-6.804v-3.631h4.116v3.364c2.814,0.115,4.705,0.649,6.091,1.261
			l-1.218,4.319c-1.092-0.42-3.024-1.3-6.049-1.3c-2.73,0-3.613,1.07-3.613,2.141c0,1.261,1.471,2.064,5.041,3.287
			c4.999,1.605,7.016,3.708,7.016,7.148c0,3.401-2.646,6.307-7.478,7.071v3.898H47.756z"/>
	</g>
	<circle fill="none" stroke="#231F20" stroke-width="6" stroke-miterlimit="10" cx="49.621" cy="49.86" r="21.26"/>
	<circle fill="none" stroke="#231F20" stroke-width="6" stroke-miterlimit="10" cx="49.621" cy="49.86" r="42.52"/>
	<line fill="none" stroke="#231F20" stroke-width="6" stroke-miterlimit="10" x1="34.375" y1="35.043" x2="18.388" y2="21.019"/>
	<line fill="none" stroke="#231F20" stroke-width="6" stroke-miterlimit="10" x1="49.621" y1="7.341" x2="49.621" y2="28.601"/>
	<line fill="none" stroke="#231F20" stroke-width="6" stroke-miterlimit="10" x1="67.032" y1="62.054" x2="84.473" y2="74.211"/>
	<line fill="none" stroke="#231F20" stroke-width="6" stroke-miterlimit="10" x1="32.21" y1="62.054" x2="16.034" y2="74.211"/>
</g>
</svg>
