<?xml version="1.0" encoding="utf-8"?>
<!-- Generator: Adobe Illustrator 16.0.0, SVG Export Plug-In . SVG Version: 6.00 Build 0)  -->
<!DOCTYPE svg PUBLIC "-//W3C//DTD SVG 1.1//EN" "http://www.w3.org/Graphics/SVG/1.1/DTD/svg11.dtd">
<svg version="1.1" id="Layer_1" xmlns="http://www.w3.org/2000/svg" xmlns:xlink="http://www.w3.org/1999/xlink" x="0px" y="0px"
	 width="99.21px" height="99.21px" viewBox="0 0 99.21 99.21" enable-background="new 0 0 99.21 99.21" xml:space="preserve">
<g>
	<g>
		<path fill="#231F20" d="M57.955,83.151v-5.026c-3.691-0.158-7.273-1.11-9.367-2.274l1.653-6.189
			c2.314,1.217,5.564,2.327,9.146,2.327c3.141,0,5.289-1.163,5.289-3.279c0-2.01-1.763-3.279-5.84-4.603
			c-5.896-1.904-9.918-4.55-9.918-9.681c0-4.656,3.416-8.306,9.312-9.417v-5.026h5.399v4.656c3.692,0.159,6.172,0.899,7.99,1.746
			l-1.599,5.978c-1.433-0.582-3.967-1.799-7.934-1.799c-3.582,0-4.739,1.481-4.739,2.962c0,1.746,1.929,2.857,6.612,4.551
			c6.557,2.221,9.201,5.131,9.201,9.893c0,4.708-3.471,8.729-9.808,9.787v5.396H57.955z"/>
	</g>
	<ellipse fill="none" stroke="#231F20" stroke-width="6" stroke-miterlimit="10" cx="60.402" cy="61.672" rx="27.886" ry="28.747"/>
	<g>
		
			<polyline fill="#FFFFFF" stroke="#231F20" stroke-width="6" stroke-linecap="round" stroke-linejoin="round" stroke-miterlimit="10" points="
			24.431,53.351 16.274,53.351 16.274,72.137 8.896,72.137 24.431,91.901 		"/>
		
			<polyline fill="#FFFFFF" stroke="#231F20" stroke-width="6" stroke-linecap="round" stroke-linejoin="round" stroke-miterlimit="10" points="
			24.431,53.351 32.588,53.351 32.588,72.137 39.965,72.137 24.431,91.901 		"/>
	</g>
	<polyline fill="#FFFFFF" stroke="#231F20" stroke-width="6" stroke-miterlimit="10" points="8.896,20.013 33.593,24.85 
		72.629,13.06 93.936,20.421 	"/>
	<ellipse fill="#FFFFFF" stroke="#231F20" stroke-width="6" stroke-miterlimit="10" cx="72.629" cy="13.06" rx="6.376" ry="6.198"/>
	<ellipse fill="#FFFFFF" stroke="#231F20" stroke-width="6" stroke-miterlimit="10" cx="33.589" cy="24.85" rx="6.376" ry="6.197"/>
</g>
</svg>
