<?xml version="1.0" encoding="utf-8"?>
<!-- Generator: Adobe Illustrator 16.0.0, SVG Export Plug-In . SVG Version: 6.00 Build 0)  -->
<!DOCTYPE svg PUBLIC "-//W3C//DTD SVG 1.1//EN" "http://www.w3.org/Graphics/SVG/1.1/DTD/svg11.dtd">
<svg version="1.1" id="Layer_1" xmlns="http://www.w3.org/2000/svg" xmlns:xlink="http://www.w3.org/1999/xlink" x="0px" y="0px"
	 width="100px" height="100px" viewBox="0 0 100 100" enable-background="new 0 0 100 100" xml:space="preserve">
<g>
	<g>
		<path fill="#FFFFFF" d="M47.212,61.087v-5.541c-3.955-0.175-7.793-1.225-10.036-2.508l1.771-6.823
			c2.479,1.342,5.962,2.566,9.8,2.566c3.365,0,5.667-1.283,5.667-3.616c0-2.216-1.889-3.615-6.258-5.073
			c-6.316-2.1-10.626-5.016-10.626-10.673c0-5.132,3.66-9.156,9.977-10.381v-5.54h5.786v5.132c3.955,0.175,6.611,0.992,8.56,1.925
			l-1.712,6.59c-1.535-0.642-4.25-1.982-8.501-1.982c-3.838,0-5.077,1.633-5.077,3.266c0,1.925,2.066,3.149,7.084,5.016
			c7.025,2.449,9.859,5.657,9.859,10.905c0,5.19-3.72,9.623-10.509,10.789v5.949H47.212z"/>
	</g>
	<path fill="none" stroke="#FFFFFF" stroke-width="4" stroke-linecap="round" stroke-linejoin="round" stroke-miterlimit="10" d="
		M72.185,58.449c-5.475,6.536-13.458,10.654-22.349,10.654c-5.256,0-10.194-1.438-14.484-3.966"/>
	<path fill="none" stroke="#FFFFFF" stroke-width="4" stroke-linecap="round" stroke-linejoin="round" stroke-miterlimit="10" d="
		M21.117,46.201c-0.759-2.793-1.165-5.744-1.165-8.796c0-17.506,13.379-31.697,29.884-31.697c5.871,0,11.347,1.796,15.966,4.897"/>
	<g>
		
			<polyline fill="#F7941E" stroke="#FFFFFF" stroke-width="4" stroke-linecap="round" stroke-linejoin="round" stroke-miterlimit="10" points="
			24.511,48.242 15.77,48.242 15.77,68.955 7.862,68.955 24.511,90.748 		"/>
		
			<polyline fill="#F7941E" stroke="#FFFFFF" stroke-width="4" stroke-linecap="round" stroke-linejoin="round" stroke-miterlimit="10" points="
			24.511,48.242 33.252,48.242 33.252,68.955 41.158,68.955 24.511,90.748 		"/>
	</g>
	
		<ellipse fill="#F7941E" stroke="#FFFFFF" stroke-width="4" stroke-linecap="round" stroke-linejoin="round" stroke-miterlimit="10" cx="72.332" cy="84.448" rx="8.815" ry="9"/>
	
		<polygon fill="#F7941E" stroke="#FFFFFF" stroke-width="4" stroke-linecap="round" stroke-linejoin="round" stroke-miterlimit="10" points="
		92.902,8.781 67.762,5.708 67.762,56.013 82.78,58.448 	"/>
</g>
</svg>
