<?xml version="1.0" encoding="utf-8"?>
<!-- Generator: Adobe Illustrator 16.0.0, SVG Export Plug-In . SVG Version: 6.00 Build 0)  -->
<!DOCTYPE svg PUBLIC "-//W3C//DTD SVG 1.1//EN" "http://www.w3.org/Graphics/SVG/1.1/DTD/svg11.dtd">
<svg version="1.1" id="Layer_1" xmlns="http://www.w3.org/2000/svg" xmlns:xlink="http://www.w3.org/1999/xlink" x="0px" y="0px"
	 width="100px" height="100px" viewBox="0 0 100 100" enable-background="new 0 0 100 100" xml:space="preserve">
<g>
	<g>
		<path fill="#FFFFFF" d="M58.001,84.151v-5.026c-3.691-0.158-7.273-1.11-9.367-2.274l1.653-6.189
			c2.314,1.217,5.564,2.327,9.146,2.327c3.141,0,5.289-1.163,5.289-3.279c0-2.01-1.763-3.279-5.84-4.603
			c-5.896-1.904-9.918-4.55-9.918-9.681c0-4.656,3.416-8.306,9.312-9.417v-5.026h5.399v4.656c3.692,0.159,6.172,0.899,7.99,1.746
			l-1.599,5.978c-1.433-0.582-3.967-1.799-7.934-1.799c-3.582,0-4.739,1.481-4.739,2.962c0,1.746,1.929,2.857,6.612,4.551
			c6.557,2.221,9.201,5.131,9.201,9.893c0,4.708-3.471,8.729-9.808,9.787v5.396H58.001z"/>
	</g>
	
		<ellipse fill="none" stroke="#FFFFFF" stroke-width="4" stroke-linecap="round" stroke-linejoin="round" stroke-miterlimit="10" cx="60.448" cy="62.672" rx="27.886" ry="28.747"/>
	<g>
		
			<polyline fill="#F7941E" stroke="#FFFFFF" stroke-width="4" stroke-linecap="round" stroke-linejoin="round" stroke-miterlimit="10" points="
			24.477,54.351 16.32,54.351 16.32,73.137 8.941,73.137 24.477,92.901 		"/>
		
			<polyline fill="#F7941E" stroke="#FFFFFF" stroke-width="4" stroke-linecap="round" stroke-linejoin="round" stroke-miterlimit="10" points="
			24.477,54.351 32.634,54.351 32.634,73.137 40.011,73.137 24.477,92.901 		"/>
	</g>
	
		<line fill="none" stroke="#FFFFFF" stroke-width="4" stroke-linecap="round" stroke-linejoin="round" stroke-miterlimit="10" x1="80.798" y1="16.866" x2="93.981" y2="21.421"/>
	
		<line fill="none" stroke="#FFFFFF" stroke-width="4" stroke-linecap="round" stroke-linejoin="round" stroke-miterlimit="10" x1="41.817" y1="23.379" x2="64.183" y2="16.624"/>
	
		<line fill="none" stroke="#FFFFFF" stroke-width="4" stroke-linecap="round" stroke-linejoin="round" stroke-miterlimit="10" x1="8.941" y1="21.013" x2="26.611" y2="24.056"/>
	
		<ellipse fill="#F7941E" stroke="#FFFFFF" stroke-width="4" stroke-linecap="round" stroke-linejoin="round" stroke-miterlimit="10" cx="72.675" cy="14.06" rx="6.376" ry="6.198"/>
	
		<ellipse fill="#F7941E" stroke="#FFFFFF" stroke-width="4" stroke-linecap="round" stroke-linejoin="round" stroke-miterlimit="10" cx="33.635" cy="25.85" rx="6.376" ry="6.197"/>
</g>
</svg>
