<?xml version="1.0" encoding="utf-8"?>
<!-- Generator: Adobe Illustrator 16.0.0, SVG Export Plug-In . SVG Version: 6.00 Build 0)  -->
<!DOCTYPE svg PUBLIC "-//W3C//DTD SVG 1.1//EN" "http://www.w3.org/Graphics/SVG/1.1/DTD/svg11.dtd">
<svg version="1.1" id="Layer_1" xmlns="http://www.w3.org/2000/svg" xmlns:xlink="http://www.w3.org/1999/xlink" x="0px" y="0px"
	 width="100px" height="100px" viewBox="0 0 100 100" enable-background="new 0 0 100 100" xml:space="preserve">
<g>
	<path fill="#F7941E" d="M21.229,25.257l-1.4-1.878c0,0-9.766,15.211-9.433,24.545c0.134,3.764-1.367,10.34-0.01,14.722
		c2.009,6.481,7.089,11.931,7.089,11.931L31.146,62.42l1.333-20.413l0.833-7.083L21.229,25.257z"/>
	<path fill="#F7941E" d="M84.331,71.6l2.485-0.265c0,0,7.207-14.175,5.889-23.421c-1.317-9.246-9.683-24.111-9.683-24.111
		L63.896,8.923H51.424v18.875l17.05,7.611l2.898,20.723l-0.079,7.132L84.331,71.6z"/>
	<g>
		<path fill="#FFFFFF" d="M49.197,65.745v-3.631c-2.815-0.114-5.546-0.803-7.142-1.644l1.26-4.473
			c1.765,0.879,4.243,1.682,6.974,1.682c2.395,0,4.032-0.84,4.032-2.369c0-1.453-1.344-2.37-4.452-3.326
			c-4.495-1.375-7.562-3.287-7.562-6.994c0-3.364,2.604-6.001,7.1-6.804v-3.631h4.116v3.364c2.814,0.115,4.705,0.649,6.091,1.261
			L58.396,43.5c-1.092-0.42-3.024-1.3-6.049-1.3c-2.73,0-3.613,1.07-3.613,2.141c0,1.261,1.471,2.064,5.041,3.287
			c4.999,1.605,7.016,3.708,7.016,7.148c0,3.402-2.646,6.307-7.478,7.071v3.898H49.197z"/>
	</g>
	<circle fill="none" stroke="#FFFFFF" stroke-width="4" stroke-miterlimit="10" cx="51.063" cy="50.226" r="21.26"/>
	<circle fill="none" stroke="#FFFFFF" stroke-width="4" stroke-miterlimit="10" cx="51.063" cy="50.227" r="42.52"/>
	<line fill="none" stroke="#FFFFFF" stroke-width="4" stroke-miterlimit="10" x1="35.816" y1="35.41" x2="19.829" y2="21.385"/>
	<line fill="none" stroke="#FFFFFF" stroke-width="4" stroke-miterlimit="10" x1="51.063" y1="7.707" x2="51.063" y2="28.967"/>
	<line fill="none" stroke="#FFFFFF" stroke-width="4" stroke-miterlimit="10" x1="68.474" y1="62.42" x2="85.914" y2="74.576"/>
	<line fill="none" stroke="#FFFFFF" stroke-width="4" stroke-miterlimit="10" x1="33.651" y1="62.42" x2="17.476" y2="74.576"/>
</g>
</svg>
