<?xml version="1.0" encoding="utf-8"?>
<!-- Generator: Adobe Illustrator 16.0.0, SVG Export Plug-In . SVG Version: 6.00 Build 0)  -->
<!DOCTYPE svg PUBLIC "-//W3C//DTD SVG 1.1//EN" "http://www.w3.org/Graphics/SVG/1.1/DTD/svg11.dtd">
<svg version="1.1" id="Layer_1" xmlns="http://www.w3.org/2000/svg" xmlns:xlink="http://www.w3.org/1999/xlink" x="0px" y="0px"
	 width="100px" height="100px" viewBox="0 0 100 100" enable-background="new 0 0 100 100" xml:space="preserve">
<g>
	<circle fill="#FFFFFF" stroke="#000000" stroke-width="6" stroke-miterlimit="10" cx="60.948" cy="62.041" r="28.673"/>
	<g>
		<path d="M58.431,83.468v-5.013c-3.795-0.158-7.478-1.108-9.631-2.27l1.7-6.174c2.379,1.213,5.721,2.322,9.403,2.322
			c3.229,0,5.438-1.162,5.438-3.271c0-2.006-1.813-3.271-6.004-4.592c-6.061-1.898-10.196-4.537-10.196-9.655
			c0-4.644,3.512-8.284,9.573-9.393V40.41h5.551v4.644c3.796,0.158,6.345,0.896,8.214,1.741l-1.644,5.963
			c-1.473-0.581-4.078-1.795-8.156-1.795c-3.683,0-4.872,1.478-4.872,2.955c0,1.741,1.983,2.85,6.798,4.538
			c6.741,2.216,9.46,5.118,9.46,9.868c0,4.695-3.568,8.706-10.083,9.762v5.382H58.431z"/>
	</g>
	<g>
		
			<polyline fill="#FFFFFF" stroke="#000000" stroke-width="6" stroke-linecap="round" stroke-linejoin="round" stroke-miterlimit="10" points="
			23.961,53.741 15.574,53.741 15.574,72.48 7.987,72.48 23.961,92.196 		"/>
		
			<polyline fill="#FFFFFF" stroke="#000000" stroke-width="6" stroke-linecap="round" stroke-linejoin="round" stroke-miterlimit="10" points="
			22.951,53.741 32.349,53.741 32.349,72.48 39.934,72.48 23.961,92.196 		"/>
	</g>
	
		<line fill="none" stroke="#000000" stroke-width="6" stroke-linecap="round" stroke-miterlimit="10" x1="93.026" y1="14.666" x2="27.831" y2="14.666"/>
	<ellipse fill="#FFFFFF" stroke="#000000" stroke-width="6" stroke-miterlimit="10" cx="20.091" cy="14.666" rx="7.74" ry="7.509"/>
	<path fill="none" stroke="#000000" stroke-width="6" stroke-linecap="round" stroke-miterlimit="10" d="M84.44,24.667"/>
	
		<line fill="none" stroke="#000000" stroke-width="6" stroke-linecap="round" stroke-miterlimit="10" x1="93.026" y1="14.666" x2="86.713" y2="8.416"/>
	
		<line fill="none" stroke="#000000" stroke-width="6" stroke-linecap="round" stroke-miterlimit="10" x1="93.026" y1="14.666" x2="86.078" y2="21.545"/>
</g>
</svg>
