<?xml version="1.0" encoding="utf-8"?>
<!-- Generator: Adobe Illustrator 16.0.0, SVG Export Plug-In . SVG Version: 6.00 Build 0)  -->
<!DOCTYPE svg PUBLIC "-//W3C//DTD SVG 1.1//EN" "http://www.w3.org/Graphics/SVG/1.1/DTD/svg11.dtd">
<svg version="1.1" id="Layer_1" xmlns="http://www.w3.org/2000/svg" xmlns:xlink="http://www.w3.org/1999/xlink" x="0px" y="0px"
	 width="100px" height="100px" viewBox="0 0 100 100" enable-background="new 0 0 100 100" xml:space="preserve">
<g>
	<g>
		
			<ellipse fill="#FFFFFF" stroke="#000000" stroke-width="6" stroke-miterlimit="10" cx="59.422" cy="62.279" rx="27.456" ry="29.147"/>
		<g>
			<path d="M57.013,84.056V78.96c-3.634-0.161-7.161-1.126-9.223-2.307l1.628-6.274c2.279,1.232,5.479,2.359,9.005,2.359
				c3.093,0,5.208-1.18,5.208-3.325c0-2.038-1.735-3.325-5.75-4.667c-5.805-1.93-9.765-4.611-9.765-9.814
				c0-4.721,3.363-8.421,9.168-9.548v-5.096H62.6v4.721c3.636,0.161,6.077,0.912,7.867,1.77l-1.574,6.062
				c-1.41-0.59-3.905-1.824-7.811-1.824c-3.527,0-4.666,1.502-4.666,3.004c0,1.77,1.898,2.896,6.51,4.612
				c6.456,2.253,9.06,5.202,9.06,10.03c0,4.773-3.417,8.85-9.656,9.923v5.471H57.013z"/>
		</g>
		<g>
			
				<polyline fill="#FFFFFF" stroke="#000000" stroke-width="6" stroke-linecap="round" stroke-linejoin="round" stroke-miterlimit="10" points="
				24.006,53.842 15.976,53.842 15.976,72.888 8.711,72.888 24.006,92.927 			"/>
			
				<polyline fill="#FFFFFF" stroke="#000000" stroke-width="6" stroke-linecap="round" stroke-linejoin="round" stroke-miterlimit="10" points="
				23.021,53.842 32.037,53.842 32.037,72.888 39.301,72.888 24.006,92.927 			"/>
		</g>
		
			<line fill="none" stroke="#000000" stroke-width="6" stroke-linecap="round" stroke-linejoin="round" stroke-miterlimit="10" x1="67.275" y1="14.171" x2="92.438" y2="29.123"/>
		<line fill="none" stroke="#000000" stroke-width="6" stroke-miterlimit="10" x1="41.079" y1="22.44" x2="67.275" y2="14.171"/>
		
			<line fill="none" stroke="#000000" stroke-width="6" stroke-linecap="round" stroke-linejoin="round" stroke-miterlimit="10" x1="8.711" y1="20.042" x2="26.107" y2="23.126"/>
		
			<ellipse fill="#FFFFFF" stroke="#000000" stroke-width="6" stroke-miterlimit="10" cx="67.276" cy="14.171" rx="6.278" ry="6.284"/>
		
			<ellipse fill="#FFFFFF" stroke="#000000" stroke-width="6" stroke-miterlimit="10" cx="33.023" cy="24.946" rx="6.278" ry="6.283"/>
	</g>
	<g>
		
			<line fill="none" stroke="#000000" stroke-width="6" stroke-linecap="round" stroke-linejoin="round" stroke-miterlimit="10" x1="93.75" y1="30.293" x2="92.427" y2="20.302"/>
		
			<line fill="none" stroke="#000000" stroke-width="6" stroke-linecap="round" stroke-linejoin="round" stroke-miterlimit="10" x1="93.75" y1="30.293" x2="84.488" y2="33.497"/>
	</g>
</g>
</svg>
