<?xml version="1.0" encoding="utf-8"?>
<!-- Generator: Adobe Illustrator 16.0.0, SVG Export Plug-In . SVG Version: 6.00 Build 0)  -->
<!DOCTYPE svg PUBLIC "-//W3C//DTD SVG 1.1//EN" "http://www.w3.org/Graphics/SVG/1.1/DTD/svg11.dtd">
<svg version="1.1" id="Layer_1" xmlns="http://www.w3.org/2000/svg" xmlns:xlink="http://www.w3.org/1999/xlink" x="0px" y="0px"
	 width="100px" height="100px" viewBox="0 0 100 100" enable-background="new 0 0 100 100" xml:space="preserve">
<g>
	<g>
		<path fill="none" stroke="#FFFFFF" stroke-width="4" stroke-linecap="round" stroke-linejoin="round" stroke-miterlimit="10" d="
			M30.015,78.863H13.944c-3.148,0-5.7-2.568-5.7-5.738V12.859c0-3.169,2.552-5.739,5.7-5.739h45.603c3.148,0,5.7,2.569,5.7,5.739
			v20.243"/>
		
			<line fill="none" stroke="#FFFFFF" stroke-width="4" stroke-linecap="round" stroke-linejoin="round" stroke-miterlimit="10" x1="54.014" y1="20.364" x2="19.478" y2="20.364"/>
		
			<line fill="none" stroke="#FFFFFF" stroke-width="4" stroke-linecap="round" stroke-linejoin="round" stroke-miterlimit="10" x1="54.014" y1="31.507" x2="19.478" y2="31.507"/>
		
			<line fill="none" stroke="#FFFFFF" stroke-width="4" stroke-linecap="round" stroke-linejoin="round" stroke-miterlimit="10" x1="36.746" y1="42.648" x2="19.478" y2="42.648"/>
		
			<line fill="none" stroke="#FFFFFF" stroke-width="4" stroke-linecap="round" stroke-linejoin="round" stroke-miterlimit="10" x1="30.515" y1="53.791" x2="19.478" y2="53.791"/>
		
			<line fill="none" stroke="#FFFFFF" stroke-width="4" stroke-linecap="round" stroke-linejoin="round" stroke-miterlimit="10" x1="30.639" y1="64.932" x2="19.478" y2="64.932"/>
	</g>
	<g>
		<polyline fill="#F7941E" stroke="#FFFFFF" stroke-miterlimit="10" points="91.881,41.538 89.381,41.208 81.213,50.393 
			81.213,90.268 86.547,85.102 		"/>
		
			<polyline fill="#F7941E" stroke="#FFFFFF" stroke-width="4" stroke-linecap="round" stroke-linejoin="round" stroke-miterlimit="10" points="
			80.506,92.16 93.283,80.021 93.283,35.468 		"/>
		
			<polyline fill="#F7941E" stroke="#FFFFFF" stroke-width="4" stroke-linecap="round" stroke-linejoin="round" stroke-miterlimit="10" points="
			32.218,47.607 44.998,35.468 93.283,35.468 80.506,47.607 		"/>
		
			<rect x="32.218" y="47.607" fill="#F7941E" stroke="#FFFFFF" stroke-width="4" stroke-linecap="round" stroke-linejoin="round" stroke-miterlimit="10" width="48.288" height="44.553"/>
	</g>
</g>
</svg>
