<?xml version="1.0" encoding="utf-8"?>
<!-- Generator: Adobe Illustrator 16.0.0, SVG Export Plug-In . SVG Version: 6.00 Build 0)  -->
<!DOCTYPE svg PUBLIC "-//W3C//DTD SVG 1.1//EN" "http://www.w3.org/Graphics/SVG/1.1/DTD/svg11.dtd">
<svg version="1.1" id="Layer_1" xmlns="http://www.w3.org/2000/svg" xmlns:xlink="http://www.w3.org/1999/xlink" x="0px" y="0px"
	 width="100px" height="100px" viewBox="0 0 100 100" enable-background="new 0 0 100 100" xml:space="preserve">
<g>
	<g>
		<path fill="#FFFFFF" d="M58.139,83.761v-5.013c-3.757-0.158-7.402-1.108-9.533-2.27l1.683-6.173
			c2.355,1.213,5.663,2.321,9.309,2.321c3.196,0,5.383-1.161,5.383-3.271c0-2.005-1.794-3.271-5.943-4.591
			c-6-1.899-10.094-4.537-10.094-9.655c0-4.644,3.477-8.284,9.477-9.393v-5.013h5.495v4.644c3.758,0.158,6.281,0.896,8.132,1.741
			l-1.627,5.963c-1.458-0.581-4.037-1.795-8.074-1.795c-3.646,0-4.823,1.478-4.823,2.955c0,1.741,1.963,2.85,6.729,4.538
			c6.673,2.216,9.364,5.118,9.364,9.867c0,4.696-3.532,8.706-9.981,9.762v5.382H58.139z"/>
	</g>
	<ellipse fill="none" stroke="#FFFFFF" stroke-width="4" stroke-miterlimit="10" cx="60.631" cy="62.335" rx="28.384" ry="28.675"/>
	<g>
		
			<polyline fill="#F7941E" stroke="#FFFFFF" stroke-width="4" stroke-linecap="round" stroke-linejoin="round" stroke-miterlimit="10" points="
			24.017,54.035 15.714,54.035 15.714,72.773 8.203,72.773 24.017,92.489 		"/>
		
			<polyline fill="#F7941E" stroke="#FFFFFF" stroke-width="4" stroke-linecap="round" stroke-linejoin="round" stroke-miterlimit="10" points="
			24.017,54.035 32.319,54.035 32.319,72.773 39.828,72.773 24.017,92.489 		"/>
	</g>
	<line fill="none" stroke="#FFFFFF" stroke-width="4" stroke-miterlimit="10" x1="27.848" y1="14.961" x2="77.918" y2="14.961"/>
	
		<ellipse fill="#F7941E" stroke="#FFFFFF" stroke-width="4" stroke-miterlimit="10" cx="20.186" cy="14.961" rx="7.662" ry="7.509"/>
	<ellipse fill="#F7941E" stroke="#FFFFFF" stroke-width="4" stroke-miterlimit="10" cx="85.58" cy="14.959" rx="7.662" ry="7.509"/>
</g>
</svg>
