<?xml version="1.0" encoding="utf-8"?>
<!-- Generator: Adobe Illustrator 16.0.0, SVG Export Plug-In . SVG Version: 6.00 Build 0)  -->
<!DOCTYPE svg PUBLIC "-//W3C//DTD SVG 1.1//EN" "http://www.w3.org/Graphics/SVG/1.1/DTD/svg11.dtd">
<svg version="1.1" id="Layer_1" xmlns="http://www.w3.org/2000/svg" xmlns:xlink="http://www.w3.org/1999/xlink" x="0px" y="0px"
	 width="100px" height="100px" viewBox="0 0 100 100" enable-background="new 0 0 100 100" xml:space="preserve">
<g>
	<path fill="none" stroke="#FFFFFF" stroke-width="4" stroke-linecap="round" stroke-linejoin="round" stroke-miterlimit="10" d="
		M66.224,42.972v43.758c0,3.178-2.563,5.754-5.726,5.754H14.7c-3.162,0-5.725-2.576-5.725-5.754V26.304
		c0-3.178,2.563-5.754,5.725-5.754h44.322"/>
	
		<line fill="none" stroke="#FFFFFF" stroke-width="4" stroke-linecap="round" stroke-linejoin="round" stroke-miterlimit="10" x1="54.941" y1="33.828" x2="20.257" y2="33.828"/>
	
		<line fill="none" stroke="#FFFFFF" stroke-width="4" stroke-linecap="round" stroke-linejoin="round" stroke-miterlimit="10" x1="54.941" y1="45.001" x2="20.257" y2="45.001"/>
	
		<line fill="none" stroke="#FFFFFF" stroke-width="4" stroke-linecap="round" stroke-linejoin="round" stroke-miterlimit="10" x1="54.941" y1="56.172" x2="20.257" y2="56.172"/>
	
		<line fill="none" stroke="#FFFFFF" stroke-width="4" stroke-linecap="round" stroke-linejoin="round" stroke-miterlimit="10" x1="54.941" y1="67.345" x2="20.257" y2="67.345"/>
	
		<line fill="none" stroke="#FFFFFF" stroke-width="4" stroke-linecap="round" stroke-linejoin="round" stroke-miterlimit="10" x1="54.941" y1="78.515" x2="20.257" y2="78.515"/>
	<path fill="#F7941E" stroke="#FFFFFF" stroke-width="4" stroke-miterlimit="10" d="M94.015,36.218c0,3.178-2.563,5.755-5.725,5.755
		H65.391c-3.162,0-5.726-2.577-5.726-5.755v-23.02c0-3.178,2.563-5.754,5.726-5.754H88.29c3.161,0,5.725,2.576,5.725,5.754V36.218z"
		/>
	
		<polyline fill="none" stroke="#FFFFFF" stroke-width="4" stroke-linecap="round" stroke-linejoin="round" stroke-miterlimit="10" points="
		67.226,26.531 75.367,31.713 86.454,17.704 	"/>
</g>
</svg>
