<?xml version="1.0" encoding="utf-8"?>
<!-- Generator: Adobe Illustrator 16.0.0, SVG Export Plug-In . SVG Version: 6.00 Build 0)  -->
<!DOCTYPE svg PUBLIC "-//W3C//DTD SVG 1.1//EN" "http://www.w3.org/Graphics/SVG/1.1/DTD/svg11.dtd">
<svg version="1.1" id="Layer_1" xmlns="http://www.w3.org/2000/svg" xmlns:xlink="http://www.w3.org/1999/xlink" x="0px" y="0px"
	 width="99.21px" height="99.21px" viewBox="0 0 99.21 99.21" enable-background="new 0 0 99.21 99.21" xml:space="preserve">
<g>
	<path fill="none" stroke="#231F20" stroke-width="6" stroke-linecap="round" stroke-linejoin="round" stroke-miterlimit="10" d="
		M65.482,86.33c0,3.178-2.563,5.754-5.726,5.754H13.958c-3.162,0-5.725-2.576-5.725-5.754V25.904c0-3.178,2.563-5.754,5.725-5.754
		h45.799c3.162,0,5.726,2.576,5.726,5.754V86.33z"/>
	
		<line fill="none" stroke="#231F20" stroke-width="6" stroke-linecap="round" stroke-linejoin="round" stroke-miterlimit="10" x1="54.199" y1="33.429" x2="19.516" y2="33.429"/>
	
		<line fill="none" stroke="#231F20" stroke-width="6" stroke-linecap="round" stroke-linejoin="round" stroke-miterlimit="10" x1="54.199" y1="44.602" x2="19.516" y2="44.602"/>
	
		<line fill="none" stroke="#231F20" stroke-width="6" stroke-linecap="round" stroke-linejoin="round" stroke-miterlimit="10" x1="54.199" y1="55.772" x2="19.516" y2="55.772"/>
	
		<line fill="none" stroke="#231F20" stroke-width="6" stroke-linecap="round" stroke-linejoin="round" stroke-miterlimit="10" x1="54.199" y1="66.945" x2="19.516" y2="66.945"/>
	
		<line fill="none" stroke="#231F20" stroke-width="6" stroke-linecap="round" stroke-linejoin="round" stroke-miterlimit="10" x1="54.199" y1="78.115" x2="19.516" y2="78.115"/>
	
		<path fill="#FFFFFF" stroke="#231F20" stroke-width="6" stroke-linecap="round" stroke-linejoin="round" stroke-miterlimit="10" d="
		M93.273,35.818c0,3.178-2.563,5.755-5.725,5.755h-22.9c-3.162,0-5.725-2.577-5.725-5.755v-23.02c0-3.178,2.563-5.754,5.725-5.754
		h22.9c3.161,0,5.725,2.576,5.725,5.754V35.818z"/>
	
		<polyline fill="none" stroke="#231F20" stroke-width="6" stroke-linecap="round" stroke-linejoin="round" stroke-miterlimit="10" points="
		66.484,26.132 74.625,31.313 85.713,17.305 	"/>
</g>
</svg>
