<?xml version="1.0" encoding="utf-8"?>
<!-- Generator: Adobe Illustrator 16.0.0, SVG Export Plug-In . SVG Version: 6.00 Build 0)  -->
<!DOCTYPE svg PUBLIC "-//W3C//DTD SVG 1.1//EN" "http://www.w3.org/Graphics/SVG/1.1/DTD/svg11.dtd">
<svg version="1.1" id="Layer_1" xmlns="http://www.w3.org/2000/svg" xmlns:xlink="http://www.w3.org/1999/xlink" x="0px" y="0px"
	 width="100px" height="100px" viewBox="0 0 100 100" enable-background="new 0 0 100 100" xml:space="preserve">
<g>
	
		<path fill="#FFFFFF" stroke="#000000" stroke-width="5" stroke-linecap="round" stroke-linejoin="round" stroke-miterlimit="10" d="
		M63.438,72.887c0,3.134-2.473,5.674-5.524,5.674H13.715c-3.051,0-5.525-2.54-5.525-5.674V13.304c0-3.134,2.474-5.673,5.525-5.673
		h44.198c3.052,0,5.524,2.539,5.524,5.673V72.887z"/>
	<g>
		
			<polyline fill="#FFFFFF" stroke="#000000" stroke-width="5" stroke-linecap="round" stroke-linejoin="round" stroke-miterlimit="10" points="
			80.495,54.556 70.27,54.556 70.27,73.129 63.119,73.129 78.175,92.67 		"/>
		
			<polyline fill="#FFFFFF" stroke="#000000" stroke-width="5" stroke-linecap="round" stroke-linejoin="round" stroke-miterlimit="10" points="
			78.175,54.556 86.081,54.556 86.081,73.129 93.23,73.129 78.175,92.67 		"/>
	</g>
	<g>
		
			<polyline fill="#FFFFFF" stroke="#000000" stroke-width="5" stroke-linecap="round" stroke-linejoin="round" stroke-miterlimit="10" points="
			78.176,47.204 86.08,47.204 86.08,28.631 93.232,28.631 78.176,9.09 		"/>
		
			<polyline fill="#FFFFFF" stroke="#000000" stroke-width="5" stroke-linecap="round" stroke-linejoin="round" stroke-miterlimit="10" points="
			80.495,47.204 70.27,47.204 70.27,28.631 63.12,28.631 78.176,9.09 		"/>
	</g>
	<polygon fill="#FFFFFF" points="15.037,25.333 15.87,27.149 15.87,54 58.37,55 58.37,34.292 44.62,40.292 39.245,39.167 
		27.995,29.042 14.87,23.792 	"/>
	
		<polyline fill="#FFFFFF" stroke="#000000" stroke-width="5" stroke-linecap="round" stroke-linejoin="round" stroke-miterlimit="10" points="
		15.037,25.333 26.704,30 41.204,41.333 56.037,34.833 	"/>
	
		<line fill="#FFFFFF" stroke="#000000" stroke-width="5" stroke-linecap="round" stroke-linejoin="round" stroke-miterlimit="10" x1="15.037" y1="55" x2="56.037" y2="55"/>
	
		<line fill="#FFFFFF" stroke="#000000" stroke-width="5" stroke-linecap="round" stroke-linejoin="round" stroke-miterlimit="10" x1="14.87" y1="16.5" x2="14.87" y2="54"/>
	<text transform="matrix(1 0 0 1 16.6201 72.417)" fill="#FFFFFF" font-family="'MyriadPro-Bold'" font-size="15">1  2  3</text>
</g>
</svg>
