<?xml version="1.0" encoding="utf-8"?>
<!-- Generator: Adobe Illustrator 16.0.0, SVG Export Plug-In . SVG Version: 6.00 Build 0)  -->
<!DOCTYPE svg PUBLIC "-//W3C//DTD SVG 1.1//EN" "http://www.w3.org/Graphics/SVG/1.1/DTD/svg11.dtd">
<svg version="1.1" id="Layer_1" xmlns="http://www.w3.org/2000/svg" xmlns:xlink="http://www.w3.org/1999/xlink" x="0px" y="0px"
	 width="99.21px" height="99.21px" viewBox="0 0 99.21 99.21" enable-background="new 0 0 99.21 99.21" xml:space="preserve">
<g>
	<path fill="none" stroke="#231F20" stroke-width="6" stroke-linecap="round" stroke-linejoin="round" stroke-miterlimit="10" d="
		M64.988,86.406c0,3.178-2.563,5.754-5.725,5.754H13.465c-3.162,0-5.725-2.576-5.725-5.754V25.98c0-3.178,2.563-5.754,5.725-5.754
		h45.798c3.161,0,5.725,2.576,5.725,5.754V86.406z"/>
	
		<line fill="none" stroke="#231F20" stroke-width="6" stroke-linecap="round" stroke-linejoin="round" stroke-miterlimit="10" x1="53.706" y1="33.505" x2="19.022" y2="33.505"/>
	
		<line fill="none" stroke="#231F20" stroke-width="6" stroke-linecap="round" stroke-linejoin="round" stroke-miterlimit="10" x1="53.706" y1="44.678" x2="19.022" y2="44.678"/>
	
		<line fill="none" stroke="#231F20" stroke-width="6" stroke-linecap="round" stroke-linejoin="round" stroke-miterlimit="10" x1="53.706" y1="55.849" x2="19.022" y2="55.849"/>
	
		<line fill="none" stroke="#231F20" stroke-width="6" stroke-linecap="round" stroke-linejoin="round" stroke-miterlimit="10" x1="53.706" y1="67.021" x2="19.022" y2="67.021"/>
	
		<line fill="none" stroke="#231F20" stroke-width="6" stroke-linecap="round" stroke-linejoin="round" stroke-miterlimit="10" x1="53.706" y1="78.191" x2="19.022" y2="78.191"/>
	
		<path fill="#FFFFFF" stroke="#231F20" stroke-width="6" stroke-linecap="round" stroke-linejoin="round" stroke-miterlimit="10" d="
		M92.778,35.895c0,3.178-2.563,5.755-5.724,5.755h-22.9c-3.161,0-5.725-2.577-5.725-5.755v-23.02c0-3.178,2.563-5.754,5.725-5.754
		h22.9c3.16,0,5.724,2.576,5.724,5.754V35.895z"/>
	<g>
		<path fill="#231F20" d="M64.604,31.734v-1.961l1.782-1.62c3.012-2.707,4.475-4.264,4.518-5.884c0-1.13-0.68-2.024-2.27-2.024
			c-1.188,0-2.227,0.597-2.948,1.15l-0.912-2.323c1.039-0.789,2.651-1.428,4.518-1.428c3.118,0,4.836,1.833,4.836,4.349
			c0,2.323-1.676,4.178-3.669,5.968l-1.273,1.066v0.042h5.197v2.665H64.604z"/>
		<path fill="#231F20" d="M85.176,20.181c-0.361-0.021-0.742,0-1.252,0.043c-2.863,0.234-4.136,1.705-4.496,3.325h0.063
			c0.679-0.703,1.633-1.108,2.927-1.108c2.313,0,4.264,1.642,4.264,4.519c0,2.75-2.1,5.01-5.091,5.01
			c-3.669,0-5.472-2.75-5.472-6.054c0-2.601,0.954-4.775,2.438-6.16c1.379-1.258,3.161-1.94,5.323-2.047
			c0.594-0.043,0.977-0.043,1.295-0.021V20.181z M83.415,27.13c0-1.279-0.679-2.388-2.058-2.388c-0.869,0-1.591,0.533-1.908,1.236
			c-0.086,0.171-0.128,0.427-0.128,0.811c0.063,1.471,0.764,2.792,2.228,2.792C82.693,29.581,83.415,28.537,83.415,27.13z"/>
	</g>
</g>
</svg>
