<?xml version="1.0" encoding="utf-8"?>
<!-- Generator: Adobe Illustrator 16.0.0, SVG Export Plug-In . SVG Version: 6.00 Build 0)  -->
<!DOCTYPE svg PUBLIC "-//W3C//DTD SVG 1.1//EN" "http://www.w3.org/Graphics/SVG/1.1/DTD/svg11.dtd">
<svg version="1.1" id="Layer_1" xmlns="http://www.w3.org/2000/svg" xmlns:xlink="http://www.w3.org/1999/xlink" x="0px" y="0px"
	 width="99.21px" height="99.21px" viewBox="0 0 99.21 99.21" enable-background="new 0 0 99.21 99.21" xml:space="preserve">
<g>
	<circle fill="#231F20" cx="50.26" cy="50.039" r="42.52"/>
	<path fill="#EC1C24" d="M26.554,14.737c0,0,10.393,4.447,23.707,4.447s23.707-4.447,23.707-4.447s2.374,1.238,5.055,3.845
		c2.221,2.158,4.205,4.604,4.205,4.604s-17.947,5.832-32.966,5.832c-15.02,0-33.513-5.139-33.513-5.139s0.831-1.342,4.514-5.025
		C23.862,16.252,26.554,14.737,26.554,14.737z"/>
	<path fill="#FFFFFF" d="M83.234,46.371c0,3.131-2.9,5.668-6.48,5.668H23.228c-3.579,0-6.48-2.538-6.48-5.668v-0.181
		c0-3.131,2.901-5.669,6.48-5.669h53.526c3.58,0,6.48,2.538,6.48,5.669V46.371z"/>
	<ellipse fill="#231F20" cx="36.908" cy="47.521" rx="3.553" ry="2.636"/>
	<ellipse fill="#231F20" cx="62.784" cy="47.521" rx="3.553" ry="2.636"/>
	<polygon fill="#231F20" stroke="#231F20" stroke-linecap="round" stroke-linejoin="round" stroke-miterlimit="10" points="
		41.241,46.28 29.285,39.656 28.541,42.683 	"/>
	<polygon fill="#231F20" stroke="#231F20" stroke-linecap="round" stroke-linejoin="round" stroke-miterlimit="10" points="
		58.041,46.28 69.996,39.656 70.74,42.683 	"/>
	<path fill="#231F20" stroke="#231F20" stroke-linecap="round" stroke-linejoin="round" stroke-miterlimit="10" d="M45.866,52.54
		c0,0,1.27-2.77,4.395-2.77c3.125,0,4.564,2.77,4.564,2.77"/>
	<g>
		<path fill="#FFFFFF" d="M33.416,73.576c-0.621,0.276-1.793,0.506-3.127,0.506c-3.633,0-5.956-2.207-5.956-5.748
			c0-3.289,2.253-5.979,6.438-5.979c0.92,0,1.932,0.16,2.667,0.437l-0.552,2.599c-0.414-0.184-1.035-0.346-1.955-0.346
			c-1.84,0-3.035,1.311-3.012,3.15c0,2.07,1.379,3.15,3.081,3.15c0.828,0,1.472-0.138,2-0.345L33.416,73.576z"/>
		<path fill="#FFFFFF" d="M47.882,68.104c0,4.116-2.92,6.002-5.933,6.002c-3.289,0-5.818-2.162-5.818-5.795s2.392-5.955,6.002-5.955
			C45.583,62.355,47.882,64.724,47.882,68.104z M39.742,68.219c0,1.932,0.805,3.381,2.299,3.381c1.357,0,2.23-1.357,2.23-3.381
			c0-1.679-0.644-3.381-2.23-3.381C40.362,64.838,39.742,66.563,39.742,68.219z"/>
		<path fill="#FFFFFF" d="M62.693,57.525v12.97c0,1.265,0.047,2.599,0.093,3.357h-3.104l-0.161-1.655h-0.046
			c-0.713,1.264-2.069,1.908-3.518,1.908c-2.668,0-4.807-2.276-4.807-5.771c-0.023-3.795,2.346-5.979,5.036-5.979
			c1.38,0,2.46,0.482,2.966,1.264h0.047v-6.094H62.693z M59.199,67.368c0-0.185-0.023-0.437-0.047-0.621
			c-0.207-0.942-0.965-1.725-2.047-1.725c-1.586,0-2.414,1.426-2.414,3.196c0,1.908,0.943,3.104,2.392,3.104
			c1.012,0,1.817-0.69,2.024-1.679c0.068-0.253,0.092-0.506,0.092-0.805V67.368z"/>
		<path fill="#FFFFFF" d="M69.871,69.346c0.115,1.449,1.541,2.139,3.174,2.139c1.195,0,2.161-0.161,3.104-0.461l0.461,2.369
			c-1.15,0.46-2.553,0.689-4.07,0.689c-3.817,0-6.002-2.207-6.002-5.725c0-2.852,1.771-6.002,5.68-6.002
			c3.633,0,5.014,2.828,5.014,5.61c0,0.598-0.07,1.127-0.115,1.38H69.871z M73.987,66.954c0-0.851-0.368-2.276-1.978-2.276
			c-1.472,0-2.069,1.334-2.161,2.276H73.987z"/>
	</g>
	<path fill="#EC1C24" d="M74.354,7.519c4.345,0,17.157,6.729,15.386,8.5c-1.77,1.771-10.735,3.728-10.735,3.728l-6.913-5.76
		C72.092,13.987,70.01,7.519,74.354,7.519z"/>
</g>
</svg>
