<?xml version="1.0" encoding="utf-8"?>
<!-- Generator: Adobe Illustrator 16.0.0, SVG Export Plug-In . SVG Version: 6.00 Build 0)  -->
<!DOCTYPE svg PUBLIC "-//W3C//DTD SVG 1.1//EN" "http://www.w3.org/Graphics/SVG/1.1/DTD/svg11.dtd">
<svg version="1.1" id="Layer_1" xmlns="http://www.w3.org/2000/svg" xmlns:xlink="http://www.w3.org/1999/xlink" x="0px" y="0px"
	 width="99.21px" height="99.21px" viewBox="0 0 99.21 99.21" enable-background="new 0 0 99.21 99.21" xml:space="preserve">
<g>
	<g>
		<path fill="none" stroke="#231F20" stroke-width="6" stroke-linecap="round" stroke-linejoin="round" stroke-miterlimit="10" d="
			M63.051,72.245c0,3.134-2.474,5.674-5.525,5.674H13.328c-3.051,0-5.525-2.54-5.525-5.674V12.662c0-3.134,2.474-5.673,5.525-5.673
			h44.197c3.052,0,5.525,2.539,5.525,5.673V72.245z"/>
		
			<line fill="none" stroke="#231F20" stroke-width="6" stroke-linecap="round" stroke-linejoin="round" stroke-miterlimit="10" x1="52.163" y1="20.081" x2="18.691" y2="20.081"/>
		
			<line fill="none" stroke="#231F20" stroke-width="6" stroke-linecap="round" stroke-linejoin="round" stroke-miterlimit="10" x1="52.163" y1="31.099" x2="18.691" y2="31.099"/>
		
			<line fill="none" stroke="#231F20" stroke-width="6" stroke-linecap="round" stroke-linejoin="round" stroke-miterlimit="10" x1="52.163" y1="42.114" x2="18.691" y2="42.114"/>
		
			<line fill="none" stroke="#231F20" stroke-width="6" stroke-linecap="round" stroke-linejoin="round" stroke-miterlimit="10" x1="52.163" y1="53.131" x2="18.691" y2="53.131"/>
		
			<line fill="none" stroke="#231F20" stroke-width="6" stroke-linecap="round" stroke-linejoin="round" stroke-miterlimit="10" x1="52.163" y1="64.145" x2="18.691" y2="64.145"/>
	</g>
	<g>
		
			<polyline fill="#FFFFFF" stroke="#231F20" stroke-width="6" stroke-linecap="round" stroke-linejoin="round" stroke-miterlimit="10" points="
			77.787,7.45 69.883,7.45 69.883,26.023 62.73,26.023 77.787,45.564 		"/>
		
			<polyline fill="#FFFFFF" stroke="#231F20" stroke-width="6" stroke-linecap="round" stroke-linejoin="round" stroke-miterlimit="10" points="
			77.787,7.45 85.693,7.45 85.693,26.023 92.843,26.023 77.787,45.564 		"/>
	</g>
	<g>
		
			<polyline fill="#FFFFFF" stroke="#231F20" stroke-width="6" stroke-linecap="round" stroke-linejoin="round" stroke-miterlimit="10" points="
			77.787,53.914 69.883,53.914 69.883,72.487 62.731,72.487 77.787,92.028 		"/>
		
			<polyline fill="#FFFFFF" stroke="#231F20" stroke-width="6" stroke-linecap="round" stroke-linejoin="round" stroke-miterlimit="10" points="
			77.787,53.914 85.693,53.914 85.693,72.487 92.844,72.487 77.787,92.028 		"/>
	</g>
</g>
</svg>
