<?xml version="1.0" encoding="utf-8"?>
<!-- Generator: Adobe Illustrator 16.0.0, SVG Export Plug-In . SVG Version: 6.00 Build 0)  -->
<!DOCTYPE svg PUBLIC "-//W3C//DTD SVG 1.1//EN" "http://www.w3.org/Graphics/SVG/1.1/DTD/svg11.dtd">
<svg version="1.1" id="Layer_1" xmlns="http://www.w3.org/2000/svg" xmlns:xlink="http://www.w3.org/1999/xlink" x="0px" y="0px"
	 width="100px" height="100px" viewBox="0 0 100 100" enable-background="new 0 0 100 100" xml:space="preserve">
<g>
	<g>
		<path fill="none" stroke="#FFFFFF" stroke-width="4" stroke-linecap="round" stroke-linejoin="round" stroke-miterlimit="10" d="
			M63.491,72.497c0,3.134-2.473,5.674-5.524,5.674H13.769c-3.051,0-5.525-2.54-5.525-5.674V12.914c0-3.134,2.474-5.673,5.525-5.673
			h44.198c3.052,0,5.524,2.539,5.524,5.673V72.497z"/>
		
			<line fill="none" stroke="#FFFFFF" stroke-width="4" stroke-linecap="round" stroke-linejoin="round" stroke-miterlimit="10" x1="52.604" y1="20.333" x2="19.132" y2="20.333"/>
		
			<line fill="none" stroke="#FFFFFF" stroke-width="4" stroke-linecap="round" stroke-linejoin="round" stroke-miterlimit="10" x1="52.604" y1="31.351" x2="19.132" y2="31.351"/>
		
			<line fill="none" stroke="#FFFFFF" stroke-width="4" stroke-linecap="round" stroke-linejoin="round" stroke-miterlimit="10" x1="52.604" y1="42.366" x2="19.132" y2="42.366"/>
		
			<line fill="none" stroke="#FFFFFF" stroke-width="4" stroke-linecap="round" stroke-linejoin="round" stroke-miterlimit="10" x1="52.604" y1="53.383" x2="19.132" y2="53.383"/>
		
			<line fill="none" stroke="#FFFFFF" stroke-width="4" stroke-linecap="round" stroke-linejoin="round" stroke-miterlimit="10" x1="52.604" y1="64.396" x2="19.132" y2="64.396"/>
	</g>
	<g>
		
			<polyline fill="#F7941E" stroke="#FFFFFF" stroke-width="4" stroke-linecap="round" stroke-linejoin="round" stroke-miterlimit="10" points="
			78.229,7.702 70.323,7.702 70.323,26.275 63.172,26.275 78.229,45.816 		"/>
		
			<polyline fill="#F7941E" stroke="#FFFFFF" stroke-width="4" stroke-linecap="round" stroke-linejoin="round" stroke-miterlimit="10" points="
			78.229,7.702 86.135,7.702 86.135,26.275 93.283,26.275 78.229,45.816 		"/>
	</g>
	<g>
		
			<polyline fill="#F7941E" stroke="#FFFFFF" stroke-width="4" stroke-linecap="round" stroke-linejoin="round" stroke-miterlimit="10" points="
			78.229,54.166 70.324,54.166 70.324,72.739 63.172,72.739 78.229,92.28 		"/>
		
			<polyline fill="#F7941E" stroke="#FFFFFF" stroke-width="4" stroke-linecap="round" stroke-linejoin="round" stroke-miterlimit="10" points="
			78.229,54.166 86.135,54.166 86.135,72.739 93.285,72.739 78.229,92.28 		"/>
	</g>
</g>
</svg>
