<?xml version="1.0" encoding="utf-8"?>
<!-- Generator: Adobe Illustrator 16.0.0, SVG Export Plug-In . SVG Version: 6.00 Build 0)  -->
<!DOCTYPE svg PUBLIC "-//W3C//DTD SVG 1.1//EN" "http://www.w3.org/Graphics/SVG/1.1/DTD/svg11.dtd">
<svg version="1.1" id="Layer_1" xmlns="http://www.w3.org/2000/svg" xmlns:xlink="http://www.w3.org/1999/xlink" x="0px" y="0px"
	 width="99.21px" height="99.21px" viewBox="0 0 99.21 99.21" enable-background="new 0 0 99.21 99.21" xml:space="preserve">
<g>
	<g>
		<path fill="#231F20" d="M47.664,62.531V56.99c-4.038-0.174-7.956-1.225-10.246-2.507l1.808-6.824
			c2.531,1.342,6.088,2.566,10.005,2.566c3.436,0,5.786-1.283,5.786-3.616c0-2.216-1.929-3.616-6.389-5.074
			c-6.449-2.1-10.849-5.016-10.849-10.673c0-5.132,3.736-9.156,10.186-10.38v-5.541h5.907v5.132c4.038,0.175,6.75,0.991,8.739,1.924
			l-1.748,6.59c-1.567-0.641-4.34-1.982-8.679-1.982c-3.918,0-5.184,1.633-5.184,3.266c0,1.925,2.109,3.149,7.232,5.016
			c7.173,2.449,10.065,5.657,10.065,10.905c0,5.19-3.797,9.623-10.729,10.789v5.949H47.664z"/>
	</g>
	<ellipse fill="none" stroke="#231F20" stroke-width="6" stroke-miterlimit="10" cx="50.343" cy="38.851" rx="30.509" ry="31.698"/>
	<g>
		
			<polyline fill="#FFFFFF" stroke="#231F20" stroke-width="6" stroke-linecap="round" stroke-linejoin="round" stroke-miterlimit="10" points="
			24.488,92.193 33.412,92.193 33.412,71.48 41.484,71.48 24.488,49.687 		"/>
		
			<polyline fill="#FFFFFF" stroke="#231F20" stroke-width="6" stroke-linecap="round" stroke-linejoin="round" stroke-miterlimit="10" points="
			24.488,92.193 15.564,92.193 15.564,71.48 7.492,71.48 24.488,49.687 		"/>
	</g>
	<g>
		
			<polyline fill="#FFFFFF" stroke="#231F20" stroke-width="6" stroke-linecap="round" stroke-linejoin="round" stroke-miterlimit="10" points="
			75.533,92.193 84.457,92.193 84.457,71.48 92.529,71.48 75.533,49.687 		"/>
		
			<polyline fill="#FFFFFF" stroke="#231F20" stroke-width="6" stroke-linecap="round" stroke-linejoin="round" stroke-miterlimit="10" points="
			75.533,92.193 66.609,92.193 66.609,71.48 58.537,71.48 75.533,49.687 		"/>
	</g>
</g>
</svg>
