<?xml version="1.0" encoding="utf-8"?>
<!-- Generator: Adobe Illustrator 16.0.0, SVG Export Plug-In . SVG Version: 6.00 Build 0)  -->
<!DOCTYPE svg PUBLIC "-//W3C//DTD SVG 1.1//EN" "http://www.w3.org/Graphics/SVG/1.1/DTD/svg11.dtd">
<svg version="1.1" id="Layer_1" xmlns="http://www.w3.org/2000/svg" xmlns:xlink="http://www.w3.org/1999/xlink" x="0px" y="0px"
	 width="100px" height="100px" viewBox="0 0 100 100" enable-background="new 0 0 100 100" xml:space="preserve">
<g>
	<g>
		<path fill="#FFFFFF" d="M47.564,62.878v-5.54c-4.038-0.176-7.956-1.225-10.246-2.508l1.808-6.824
			c2.531,1.342,6.088,2.566,10.005,2.566c3.436,0,5.786-1.283,5.786-3.616c0-2.216-1.929-3.616-6.389-5.074
			c-6.449-2.1-10.849-5.016-10.849-10.673c0-5.132,3.736-9.156,10.186-10.38V15.29h5.907v5.132c4.038,0.175,6.75,0.991,8.739,1.924
			l-1.748,6.59c-1.567-0.641-4.34-1.982-8.679-1.982c-3.918,0-5.184,1.633-5.184,3.266c0,1.925,2.109,3.149,7.232,5.016
			c7.173,2.449,10.065,5.657,10.065,10.905c0,5.19-3.797,9.624-10.729,10.79v5.948H47.564z"/>
	</g>
	<path fill="none" stroke="#FFFFFF" stroke-width="4" stroke-linecap="round" stroke-linejoin="round" stroke-miterlimit="10" d="
		M60.636,69.009c-3.243,1.221-6.743,1.887-10.393,1.887c-3.342,0-6.558-0.558-9.567-1.59"/>
	<path fill="none" stroke="#FFFFFF" stroke-width="4" stroke-linecap="round" stroke-linejoin="round" stroke-miterlimit="10" d="
		M21.184,48.879c-0.941-3.052-1.449-6.305-1.449-9.681C19.734,21.691,33.394,7.5,50.243,7.5c16.851,0,30.51,14.191,30.51,31.698
		c0,3.709-0.613,7.269-1.74,10.577"/>
	<g>
		
			<polyline fill="#F7941E" stroke="#FFFFFF" stroke-width="4" stroke-linecap="round" stroke-linejoin="round" stroke-miterlimit="10" points="
			24.389,92.539 33.313,92.539 33.313,71.826 41.385,71.826 24.389,50.034 		"/>
		
			<polyline fill="#F7941E" stroke="#FFFFFF" stroke-width="4" stroke-linecap="round" stroke-linejoin="round" stroke-miterlimit="10" points="
			24.389,92.539 15.465,92.539 15.465,71.826 7.393,71.826 24.389,50.034 		"/>
	</g>
	<g>
		
			<polyline fill="#F7941E" stroke="#FFFFFF" stroke-width="4" stroke-linecap="round" stroke-linejoin="round" stroke-miterlimit="10" points="
			75.434,92.539 84.357,92.539 84.357,71.826 92.43,71.826 75.434,50.034 		"/>
		
			<polyline fill="#F7941E" stroke="#FFFFFF" stroke-width="4" stroke-linecap="round" stroke-linejoin="round" stroke-miterlimit="10" points="
			75.434,92.539 66.51,92.539 66.51,71.826 58.438,71.826 75.434,50.034 		"/>
	</g>
</g>
</svg>
