<?xml version="1.0" encoding="utf-8"?>
<!-- Generator: Adobe Illustrator 16.0.0, SVG Export Plug-In . SVG Version: 6.00 Build 0)  -->
<!DOCTYPE svg PUBLIC "-//W3C//DTD SVG 1.1//EN" "http://www.w3.org/Graphics/SVG/1.1/DTD/svg11.dtd">
<svg version="1.1" id="Layer_1" xmlns="http://www.w3.org/2000/svg" xmlns:xlink="http://www.w3.org/1999/xlink" x="0px" y="0px"
	 width="100px" height="100px" viewBox="0 0 100 100" enable-background="new 0 0 100 100" xml:space="preserve">
<g>
	<g>
		
			<path fill="#FFFFFF" stroke="#000000" stroke-width="5" stroke-linecap="round" stroke-linejoin="round" stroke-miterlimit="10" d="
			M77.594,78.972c0,3.134-2.473,5.674-5.524,5.674H27.871c-3.051,0-5.524-2.54-5.524-5.674V19.389c0-3.134,2.474-5.673,5.524-5.673
			h44.198c3.052,0,5.524,2.539,5.524,5.673V78.972z"/>
		
			<line fill="#FFFFFF" stroke="#000000" stroke-width="5" stroke-linecap="round" stroke-linejoin="round" stroke-miterlimit="10" x1="66.707" y1="26.808" x2="33.234" y2="26.808"/>
		
			<line fill="#FFFFFF" stroke="#000000" stroke-width="5" stroke-linecap="round" stroke-linejoin="round" stroke-miterlimit="10" x1="66.707" y1="37.825" x2="33.234" y2="37.825"/>
		
			<line fill="#FFFFFF" stroke="#000000" stroke-width="5" stroke-linecap="round" stroke-linejoin="round" stroke-miterlimit="10" x1="66.707" y1="48.841" x2="33.234" y2="48.841"/>
		
			<line fill="#FFFFFF" stroke="#000000" stroke-width="5" stroke-linecap="round" stroke-linejoin="round" stroke-miterlimit="10" x1="66.707" y1="59.857" x2="33.234" y2="59.857"/>
		
			<line fill="#FFFFFF" stroke="#000000" stroke-width="5" stroke-linecap="round" stroke-linejoin="round" stroke-miterlimit="10" x1="66.707" y1="70.871" x2="33.234" y2="70.871"/>
	</g>
	<g>
		
			<polyline fill="#FFFFFF" stroke="#000000" stroke-width="5" stroke-linecap="round" stroke-linejoin="round" stroke-miterlimit="10" points="
			7.063,21.807 7.063,29.712 25.637,29.711 25.638,36.864 45.178,21.808 		"/>
		
			<polyline fill="#FFFFFF" stroke="#000000" stroke-width="5" stroke-linecap="round" stroke-linejoin="round" stroke-miterlimit="10" points="
			7.063,23.536 7.063,13.901 25.637,13.9 25.638,6.752 45.178,21.808 		"/>
	</g>
	<g>
		
			<polyline fill="#FFFFFF" stroke="#000000" stroke-width="5" stroke-linecap="round" stroke-linejoin="round" stroke-miterlimit="10" points="
			7.063,60.578 7.063,68.483 25.637,68.482 25.638,75.636 45.178,60.579 		"/>
		
			<polyline fill="#FFFFFF" stroke="#000000" stroke-width="5" stroke-linecap="round" stroke-linejoin="round" stroke-miterlimit="10" points="
			7.063,62.308 7.063,52.673 25.637,52.672 25.638,45.523 45.178,60.579 		"/>
	</g>
	<g>
		
			<polyline fill="#FFFFFF" stroke="#000000" stroke-width="5" stroke-linecap="round" stroke-linejoin="round" stroke-miterlimit="10" points="
			55.813,39.92 55.813,47.825 74.387,47.824 74.388,54.978 93.928,39.921 		"/>
		
			<polyline fill="#FFFFFF" stroke="#000000" stroke-width="5" stroke-linecap="round" stroke-linejoin="round" stroke-miterlimit="10" points="
			55.813,41.649 55.813,32.015 74.387,32.014 74.388,24.865 93.928,39.921 		"/>
	</g>
	<g>
		
			<polyline fill="#FFFFFF" stroke="#000000" stroke-width="5" stroke-linecap="round" stroke-linejoin="round" stroke-miterlimit="10" points="
			55.813,78.691 55.813,86.597 74.387,86.596 74.388,93.749 93.928,78.692 		"/>
		
			<polyline fill="#FFFFFF" stroke="#000000" stroke-width="5" stroke-linecap="round" stroke-linejoin="round" stroke-miterlimit="10" points="
			55.813,80.421 55.813,70.786 74.387,70.785 74.388,63.637 93.928,78.692 		"/>
	</g>
</g>
</svg>
