<?xml version="1.0" encoding="utf-8"?>
<!-- Generator: Adobe Illustrator 16.0.0, SVG Export Plug-In . SVG Version: 6.00 Build 0)  -->
<!DOCTYPE svg PUBLIC "-//W3C//DTD SVG 1.1//EN" "http://www.w3.org/Graphics/SVG/1.1/DTD/svg11.dtd">
<svg version="1.1" id="Layer_1" xmlns="http://www.w3.org/2000/svg" xmlns:xlink="http://www.w3.org/1999/xlink" x="0px" y="0px"
	 width="99.21px" height="99.21px" viewBox="0 0 99.21 99.21" enable-background="new 0 0 99.21 99.21" xml:space="preserve">
<g>
	<path fill="none" stroke="#231F20" stroke-width="6" stroke-linecap="round" stroke-linejoin="round" stroke-miterlimit="10" d="
		M92.424,66.527c0,7.828-6.345,14.174-14.172,14.174H21.559c-7.828,0-14.173-6.346-14.173-14.174V21.173
		C7.385,13.346,13.731,7,21.559,7h56.693c7.827,0,14.172,6.346,14.172,14.173V66.527z"/>
	
		<polygon fill="none" stroke="#231F20" stroke-width="6" stroke-linecap="round" stroke-linejoin="round" stroke-miterlimit="10" points="
		33.731,92.04 33.731,92.04 19.558,92.04 19.558,92.04 19.558,80.701 19.558,80.701 33.731,80.701 33.731,80.701 	"/>
	
		<polygon fill="none" stroke="#231F20" stroke-width="6" stroke-linecap="round" stroke-linejoin="round" stroke-miterlimit="10" points="
		79.559,92.04 79.559,92.04 65.385,92.04 65.385,92.04 65.385,80.701 65.385,80.701 79.559,80.701 79.559,80.701 	"/>
	<path fill="none" stroke="#231F20" stroke-width="6" stroke-linecap="round" stroke-linejoin="round" stroke-miterlimit="10" d="
		M21.386,23.002c0-3.131,2.538-5.669,5.669-5.669h41.696c3.131,0,5.67,2.538,5.67,5.669v41.697c0,3.131-2.539,5.669-5.67,5.669
		H27.056c-3.131,0-5.669-2.538-5.669-5.669V23.002z"/>
	
		<polygon fill="#FFFFFF" stroke="#231F20" stroke-width="6" stroke-linecap="round" stroke-linejoin="round" stroke-miterlimit="10" points="
		83.595,38.75 83.595,38.75 74.422,38.75 74.422,38.75 74.422,27.411 74.422,27.411 83.595,27.411 83.595,27.411 	"/>
	
		<polygon fill="#FFFFFF" stroke="#231F20" stroke-width="6" stroke-linecap="round" stroke-linejoin="round" stroke-miterlimit="10" points="
		83.595,59.5 83.595,59.5 74.422,59.5 74.422,59.5 74.422,48.161 74.422,48.161 83.595,48.161 83.595,48.161 	"/>
	<path fill="none" stroke="#231F20" stroke-width="6" stroke-linecap="round" stroke-linejoin="round" stroke-miterlimit="10" d="
		M47.83,36.646c-8.468,0-14.215,1.472-14.215,1.472V60.85H47.83h14.702V38.315C62.531,38.315,56.299,36.646,47.83,36.646z"/>
	<path fill="none" stroke="#231F20" stroke-width="6" stroke-linecap="round" stroke-linejoin="round" stroke-miterlimit="10" d="
		M39.961,36.638c0,0-0.366-11.793,9.306-11.793c9.672,0,8.415,10.8,8.415,10.8"/>
</g>
</svg>
